<svg width="16" height="14" viewBox="0 0 16 14" fill="none" xmlns="http://www.w3.org/2000/svg">
<path d="M4.11719 0.381201H4.01719V0.481201V2.47916V2.57916H4.11719H11.2973H11.3973V2.47916V0.481201V0.381201H11.2973H4.11719ZM4.61074 1.90816V1.05221H10.8038V1.90816H4.61074Z" fill="white" stroke="white" stroke-width="0.2"/>
<path d="M1.87109 2.35897H1.71549L1.72119 2.51448L2.11475 13.2339L2.12005 13.3784H2.26465H13.2867H13.4313L13.4366 13.2339L13.8301 2.51448L13.8358 2.35897H13.6802H1.87109ZM2.78588 12.6074L2.43793 3.12998H13.1134L12.7654 12.6074H2.78588Z" fill="white" stroke="white" stroke-width="0.3"/>
<path fill-rule="evenodd" clip-rule="evenodd" d="M14.8631 2.81341H0.689453V2.34241H14.8631V2.81341Z" fill="white" stroke="white"/>
<path fill-rule="evenodd" clip-rule="evenodd" d="M5.54688 11.0282L5.54688 4.54285L5.94043 4.54285L5.94043 11.0282L5.54688 11.0282Z" fill="white" stroke="white"/>
<path fill-rule="evenodd" clip-rule="evenodd" d="M9.84815 11.0282L9.84815 4.54285L10.2417 4.54285L10.2417 11.0282L9.84815 11.0282Z" fill="white" stroke="white"/>
</svg>
